<?xml version="1.0" encoding="UTF-8" standalone="no"?>
<!-- Created with Inkscape (http://www.inkscape.org/) -->

<svg
   xmlns:dc="http://purl.org/dc/elements/1.1/"
   xmlns:cc="http://creativecommons.org/ns#"
   xmlns:rdf="http://www.w3.org/1999/02/22-rdf-syntax-ns#"
   xmlns:svg="http://www.w3.org/2000/svg"
   xmlns="http://www.w3.org/2000/svg"
   xmlns:xlink="http://www.w3.org/1999/xlink"
   xmlns:sodipodi="http://sodipodi.sourceforge.net/DTD/sodipodi-0.dtd"
   xmlns:inkscape="http://www.inkscape.org/namespaces/inkscape"
   width="210mm"
   height="297mm"
   id="svg2"
   version="1.1"
   inkscape:version="0.48.2 r9819"
   sodipodi:docname="ETZetera II.svg">
  <defs
     id="defs4">
    <linearGradient
       id="linearGradient4126">
      <stop
         style="stop-color:#000000;stop-opacity:1;"
         offset="0"
         id="stop4128" />
      <stop
         style="stop-color:#292c2c;stop-opacity:1;"
         offset="1"
         id="stop4130" />
    </linearGradient>
    <linearGradient
       inkscape:collect="always"
       xlink:href="#linearGradient4126"
       id="linearGradient4136"
       x1="209.10158"
       y1="1190.7531"
       x2="359.61432"
       y2="615.97626"
       gradientUnits="userSpaceOnUse" />
  </defs>
  <sodipodi:namedview
     id="base"
     pagecolor="#ffffff"
     bordercolor="#666666"
     borderopacity="1.0"
     inkscape:pageopacity="0.0"
     inkscape:pageshadow="2"
     inkscape:zoom="0.98994949"
     inkscape:cx="312.78727"
     inkscape:cy="271.40663"
     inkscape:document-units="px"
     inkscape:current-layer="layer1"
     showgrid="false"
     inkscape:window-width="1920"
     inkscape:window-height="1055"
     inkscape:window-x="0"
     inkscape:window-y="24"
     inkscape:window-maximized="1" />
  <metadata
     id="metadata7">
    <rdf:RDF>
      <cc:Work
         rdf:about="">
        <dc:format>image/svg+xml</dc:format>
        <dc:type
           rdf:resource="http://purl.org/dc/dcmitype/StillImage" />
      </cc:Work>
    </rdf:RDF>
  </metadata>
  <g
     inkscape:label="Ebene 1"
     inkscape:groupmode="layer"
     id="layer1">
    <rect
       style="fill:url(#linearGradient4136);fill-opacity:1;fill-rule:nonzero;stroke:none"
       id="rect3352"
       width="800"
       height="434.28571"
       x="-30.714285"
       y="680.93359" />
    <rect
       style="fill:#ff0000;fill-opacity:1;fill-rule:nonzero;stroke:none"
       id="rect3907"
       width="639.28571"
       height="371.2132"
       x="42.142857"
       y="183.29182" />
    <path
       style="fill:#ffffff;fill-opacity:1"
       d="m 248.58827,267.12733 c -0.2496,-0.076 -0.95101,0.57093 -2.33832,1.95656 -2.31586,2.31307 -4.15303,2.65996 -9.83049,1.81339 -30.10405,-4.48887 -35.81269,-4.40035 -46.09828,0.81125 -13.04452,6.60952 -21.13364,19.6745 -25.10114,40.6104 -4.98644,26.31257 -8.40871,32.37227 -22.81054,40.13318 -5.14266,2.77137 -5.48791,3.17598 -2.052,2.67237 3.91786,-0.57424 3.9867,-0.45363 1.81339,2.86325 -1.24511,1.90028 -3.34699,3.88007 -4.67664,4.39031 -1.32966,0.51024 -2.08142,1.25904 -1.67022,1.67023 0.41121,0.41121 3.33068,-0.35017 6.49003,-1.67023 8.1778,-3.4169 8.27805,-3.16438 3.10185,10.7849 -0.62332,1.67977 1.14395,0.13362 3.96082,-3.4359 5.8698,-7.43818 7.4286,-8.08144 6.39459,-2.67236 -1.01067,5.28696 0.29481,4.75268 4.05627,-1.62251 1.84336,-3.12425 5.42416,-6.35253 8.4943,-7.63533 4.79938,-2.00529 6.69374,-1.90186 19.08832,0.85898 16.36096,3.64436 34.70867,3.91393 45.47791,0.71581 9.76612,-2.90022 20.45929,-12.95359 25.62607,-24.05128 4.26914,-9.16965 4.93787,-21.93668 1.90883,-36.60185 -1.45085,-7.02078 -1.46027,-9.59193 0,-11.9302 1.53661,-2.4605 1.47263,-2.95869 -0.42948,-2.95869 -3.49636,0 -2.75675,-2.77011 1.90883,-7.20584 2.92178,-2.77781 3.34192,-3.66685 1.3839,-2.95869 -1.54783,0.55979 -4.56632,1.42584 -6.68091,1.95655 -3.43239,0.86148 -3.72925,0.5955 -2.76781,-2.43376 0.96402,-3.03734 0.76911,-3.20221 -2.00427,-1.71794 -4.30723,2.30516 -4.64694,2.14335 -3.62678,-1.76567 0.43721,-1.67533 0.63136,-2.50082 0.38177,-2.57693 z m -35.17023,5.9651 c 8.24707,-0.0397 17.19619,1.8593 25.96011,5.67878 1.28278,0.55906 -1.47664,1.47047 -6.25142,2.05199 -13.81121,1.68209 -24.90787,7.73447 -37.12678,20.28134 -5.95789,6.11781 -12.13325,13.42791 -13.74359,16.27279 -2.09405,3.69944 0.51532,1.73444 9.16239,-7.01496 16.33395,-16.52721 30.49657,-23.87118 44.95299,-23.1923 9.68781,0.45496 9.88239,0.55287 10.40314,5.0584 1.69676,14.68052 -9.2399,34.80738 -24.43305,44.95299 -9.92171,6.62545 -9.71421,8.22907 0.42949,3.05413 13.44307,-6.85816 23.40292,-19.21486 28.87108,-35.79059 1.91642,-5.80931 2.10784,-5.92142 3.14957,-2.2906 1.96541,6.8502 1.44083,20.6546 -1.04986,27.96438 -2.89476,8.49569 -12.86412,19.26369 -22.23789,24.05128 -7.867,4.01802 -29.76392,5.4218 -40.99216,2.62465 l -6.8718,-1.71795 6.77636,-1.24074 c 10.66604,-1.95709 10.83541,-2.75762 0.4772,-2.38604 -5.25081,0.18835 -9.54568,0.18841 -9.54415,0 0.002,-0.18841 2.23333,-1.48283 4.96296,-2.86325 7.61856,-3.85285 19.89073,-13.6545 23.90812,-19.08832 3.92558,-5.30963 3.44044,-5.12124 -8.92379,3.53134 -7.40911,5.18494 -24.35353,11.88248 -30.0641,11.88248 -3.16071,0 -2.70595,-11.54368 0.90669,-23.24003 5.3128,-17.20085 19.93381,-33.54341 35.93376,-40.22863 9.19782,-3.84309 4.85395,-4.31608 -6.10826,-0.66809 -7.67882,2.55535 -12.3316,5.41398 -19.42236,11.97792 -8.30098,7.68422 -9.00331,8.07445 -6.72864,3.6745 4.34826,-8.41098 12.05898,-15.99083 20.04274,-19.70869 5.17296,-2.40893 11.14686,-3.59592 17.56125,-3.62678 z"
       id="path2996"
       inkscape:connector-curvature="0" />
    <path
       style="fill:#000000;fill-opacity:1"
       d="m 336.55233,-250.96636 c -1.85065,-0.80347 -5.22565,-1.47074 -7.5,-1.48282 -8.57003,-0.0455 -17.87727,-6.56945 -21.71442,-15.22076 -3.50571,-7.90405 -3.30026,-16.50274 0.57923,-24.24215 4.02061,-8.02096 9.51779,-11.01513 20.22331,-11.01513 4.00218,0 6.81722,-0.15316 6.25565,-0.34035 -1.82815,-0.60938 -3.97949,-5.97116 -3.95619,-9.85999 l 0.0228,-3.79966 1.56775,3.17902 c 1.61254,3.26981 6.57852,6.32098 10.28784,6.32098 1.15438,0 2.09887,-0.41547 2.09887,-0.92327 0,-1.63245 5.22478,-7.1945 8.9171,-9.49273 6.48098,-4.03397 7.56111,-3.97559 4.23125,0.2287 -3.92637,4.95744 -5.56833,8.65047 -4.77049,10.7296 0.83411,2.17365 4.9003,1.23172 9.37214,-2.17105 1.7875,-1.36017 3.25,-2.10026 3.25,-1.64465 0,1.15542 -3.10886,5.54653 -4.87386,6.88411 -1.1023,0.83536 0.37374,1.00337 5.95411,0.67774 6.33384,-0.3696 8.07639,-0.0931 11.90637,1.88929 2.58251,1.33669 5.7655,4.16252 7.5,6.6584 2.75627,3.96617 3.0119,5.03272 2.99607,12.5 -0.0139,6.5467 -0.46816,9.01466 -2.29331,12.45892 -5.52226,10.4211 -14.98225,16.94024 -25.18938,17.35871 -3.025,0.12401 -6.625,0.81238 -8,1.5297 -3.31267,1.72816 -12.65562,1.60484 -16.86481,-0.22261 z m 17.64808,-3.96329 c 2.45775,-1.37366 5.73266,-2.49757 7.27758,-2.49757 6.44975,0 14.03588,-5.71101 17.26838,-13 4.28768,-9.66834 1.38311,-22.55092 -6.20038,-27.50038 -4.27509,-2.79019 -19.12885,-5.63354 -19.12885,-3.66169 0,0.27752 0.74474,1.32752 1.65499,2.33333 1.54009,1.70178 1.53989,1.82874 -0.003,1.82874 -1.11585,0 -0.36741,1.16585 2.28923,3.56597 2.1709,1.96128 4.47928,5.17849 5.12972,7.14936 1.43119,4.33652 0.63619,13.50583 -1.58954,18.33335 -1.03897,2.25349 -1.38243,2.58366 -0.98963,0.95132 3.90367,-16.22227 -0.61547,-24.30483 -13.66542,-24.44086 -10.6046,-0.11054 -15.26458,6.17697 -15.13655,20.42311 0.094,10.45753 -1.56522,7.69642 -2.40456,-4.00147 -0.45413,-6.32933 -0.18827,-8.3357 1.68004,-12.6787 1.22075,-2.83771 3.06732,-5.9267 4.10349,-6.86442 2.57921,-2.33414 1.55918,-3.43766 -3.17755,-3.43766 -14.40604,0 -23.11632,19.0615 -15.46841,33.85093 2.14765,4.15309 7.97804,8.91065 12.31051,10.04529 13.66302,3.57826 19.08279,3.49531 26.04985,-0.39865 z m -6.0062,-45.16247 c -1.25239,-0.69532 -4.07707,-1.26423 -6.27707,-1.26423 -3.678,0 -3.823,0.0978 -1.8012,1.21457 1.20934,0.66801 4.03402,1.23691 6.27706,1.26423 3.81173,0.0464 3.92945,-0.033 1.80121,-1.21457 z m 95.70476,47.22997 c -4.1861,-5.48827 -4.40904,-11.50284 -0.88703,-23.9315 2.25924,-7.97254 4.47462,-12.79926 10.38842,-22.63357 6.74581,-11.21792 8.00113,-12.74029 12.2391,-14.84276 3.27477,-1.62461 6.67043,-2.39095 11.07755,-2.5 5.57648,-0.13797 6.99717,0.241 11.59412,3.09276 2.8814,1.7875 5.434,3.25 5.67246,3.25 0.23845,0 0.4495,-3.0375 0.46899,-6.75 0.0334,-6.35705 0.11857,-6.60446 1.4635,-4.25 0.78543,1.375 1.73029,4.65882 2.09968,7.29738 l 0.67161,4.79738 2.36094,-2.21799 c 3.01827,-2.83551 3.58757,-2.19943 2.16883,2.42323 -0.62427,2.03406 -0.90763,3.92571 -0.62968,4.20366 0.27795,0.27795 1.91877,0.0126 3.64627,-0.58957 4.93667,-1.72093 5.92047,-0.53274 1.71231,2.06805 -4.35042,2.68871 -3.82686,3.18116 4.7211,4.44057 5.85635,0.86284 6.10406,2.10515 0.59538,2.98602 -2.28504,0.3654 -4.55324,0.91072 -5.04045,1.21183 -0.48721,0.30111 0.70736,2.31097 2.65461,4.46634 4.36051,4.82655 4.95816,8.17342 0.8878,4.97168 -3.2786,-2.57895 -3.66301,-2.26257 -2.23347,1.83823 1.47153,4.22121 0.40414,10.54288 -2.6642,15.77899 -3.25957,5.56243 -10.19479,8.8886 -23.56565,11.30221 -5.71121,1.03095 -12.45085,2.76137 -14.97699,3.84537 -2.55113,1.09473 -8.38253,2.28659 -13.11732,2.681 l -8.52436,0.71007 -2.78352,-3.64938 z m 16.01817,0.46085 c 2.75,-0.47053 7.83112,-2.19867 11.29137,-3.8403 4.46417,-2.11791 8.5685,-3.18635 14.1319,-3.67883 7.20238,-0.63755 7.7978,-0.85741 7.31562,-2.70128 -0.4104,-1.56936 -0.11195,-1.91774 1.3681,-1.59698 1.04116,0.22564 1.77684,0.95704 1.63485,1.62535 -0.16163,0.76074 1.2687,0.43615 3.82516,-0.86806 7.00088,-3.57158 9.52443,-11.93894 6.3821,-21.16119 -1.47137,-4.31823 -6.4491,-10.47677 -6.4491,-7.97894 0,0.64587 -0.675,1.17431 -1.5,1.17431 -0.825,0 -1.5,-0.45 -1.5,-1 0,-0.55 -1.16713,-1 -2.59362,-1 -1.77305,0 -2.7631,0.64808 -3.12929,2.04842 -0.5642,2.15751 -3.97917,2.29517 -3.52709,0.14219 0.26652,-1.26928 -2.55199,-1.58756 -5.16821,-0.58362 -0.86999,0.33384 -1.58179,1.43228 -1.58179,2.44098 0,2.66998 -1.85627,3.39208 -3.91963,1.52476 -1.64897,-1.49229 -1.90145,-1.49324 -3.13097,-0.0118 -0.90135,1.08606 -2.24579,1.42975 -4.12369,1.05417 -2.10956,-0.42191 -3.04253,-0.0785 -3.8412,1.4138 -0.68557,1.281 -2.09284,1.97106 -4.01969,1.97106 -2.00337,0 -2.96482,0.49956 -2.96482,1.54049 0,0.84727 -0.95707,2.835 -2.12683,4.41718 -1.66119,2.24689 -1.97967,3.66109 -1.45468,6.45951 0.68926,3.67408 -0.0926,4.50868 -2.22563,2.37568 -1.7095,-1.7095 -4.69286,1.46834 -4.69286,4.99876 0,1.96565 -0.47991,2.67029 -1.75,2.56949 -2.61472,-0.20752 -2.36218,6.02671 0.35417,8.74306 1.6346,1.6346 2.80618,1.95611 5.25,1.44072 1.7302,-0.3649 5.39583,-1.04843 8.14583,-1.51897 z m -12.00437,-0.033 c -0.34231,-0.55389 0.10054,-1.28448 0.98412,-1.62354 1.91464,-0.73472 2.98171,0.0749 2.06137,1.56407 -0.83038,1.34358 -2.23491,1.37101 -3.04549,0.0595 z m 15.95052,-3.08007 c -1.03052,-1.66742 1.28721,-3.57951 2.66672,-2.2 1.15392,1.15394 0.43172,3.28715 -1.11287,3.28715 -0.48508,0 -1.18431,-0.48921 -1.55385,-1.08713 z m -8.93607,-2.89656 c -0.73755,-1.19335 0.19857,-3.01629 1.54894,-3.01629 1.2168,0 1.22469,2.70662 0.0101,3.45729 -0.512,0.31644 -1.21356,0.11799 -1.55902,-0.44098 z m 18.70809,-2.17081 c 0.51903,-1.5571 2.75625,-1.82979 2.83465,-0.3455 0.0291,0.55 -0.69777,1.15548 -1.61517,1.3455 -1.04271,0.21599 -1.49986,-0.15888 -1.21948,-1 z m 10.03183,-2.09548 c 0.22917,-0.6875 1.01667,-1.25 1.75,-1.25 0.73333,0 1.52083,0.5625 1.75,1.25 0.24786,0.74359 -0.46111,1.25 -1.75,1.25 -1.28889,0 -1.99786,-0.50641 -1.75,-1.25 z m -20.75,-1.75 c -0.7292,-1.17987 0.21667,-3 1.55902,-3 0.51754,0 0.94098,0.9 0.94098,2 0,2.10908 -1.45488,2.69104 -2.5,1 z m 37.6545,-3.43765 c 0.19002,-0.9174 0.7955,-1.64422 1.3455,-1.61517 1.48429,0.0784 1.2116,2.31562 -0.3455,2.83465 -0.84112,0.28038 -1.21599,-0.17677 -1,-1.21948 z m -28.1545,-1.00333 c 0,-0.79254 0.35899,-1.66285 0.79775,-1.93402 1.27929,-0.79065 3.52519,1.04345 2.77135,2.2632 -0.9922,1.60541 -3.5691,1.36774 -3.5691,-0.32918 z m 10.25,-2.80902 c 0.22917,-0.6875 1.01667,-1.25 1.75,-1.25 0.73333,0 1.52083,0.5625 1.75,1.25 0.24786,0.74359 -0.46111,1.25 -1.75,1.25 -1.28889,0 -1.99786,-0.50641 -1.75,-1.25 z m -21.77384,-0.78857 c -1.00797,-1.63093 1.23102,-3.65425 2.56622,-2.31905 0.72318,0.72318 0.59733,1.41175 -0.41097,2.24856 -1.07422,0.89152 -1.63646,0.90991 -2.15525,0.0705 z m 31.52384,-0.46143 c 0,-1.02996 0.6554,-1.52043 1.75,-1.30963 2.10784,0.40593 1.97493,2.18068 -0.19718,2.63295 -0.90598,0.18865 -1.55282,-0.36259 -1.55282,-1.32332 z m 9.51008,-2.48369 c -0.73755,-1.19337 0.19857,-3.01631 1.54894,-3.01631 1.2168,0 1.22469,2.70662 0.0101,3.45729 -0.512,0.31644 -1.21356,0.11799 -1.55902,-0.44098 z m -32.81623,-1.65579 c -0.93324,-0.93324 0.19452,-2.36052 1.86517,-2.36052 0.79254,0 1.44098,0.675 1.44098,1.5 0,1.50623 -2.11099,2.05568 -3.30615,0.86052 z m 10.30615,-3.86052 c 0,-0.825 0.675,-1.5 1.5,-1.5 0.825,0 1.5,0.675 1.5,1.5 0,0.825 -0.675,1.5 -1.5,1.5 -0.825,0 -1.5,-0.675 -1.5,-1.5 z m 9.44615,-0.58713 c -0.85813,-1.38848 1.04396,-3.34604 2.42304,-2.49371 1.14846,0.70978 0.41309,3.58084 -0.91716,3.58084 -0.4587,0 -1.13634,-0.48921 -1.50588,-1.08713 z m 11.03001,-1.95144 c -1.00797,-1.63093 1.23102,-3.65425 2.56622,-2.31905 0.72318,0.72318 0.59733,1.41175 -0.41097,2.24856 -1.07422,0.89152 -1.63646,0.90991 -2.15525,0.0705 z m -53.47616,10.97955 c 0,-0.51754 -0.675,-0.94098 -1.5,-0.94098 -1.54641,0 -1.9867,1.17996 -0.86052,2.30615 0.79893,0.79893 2.36052,-0.10419 2.36052,-1.36517 z m 5.74986,-6.52445 c -0.95295,-0.95296 -2.86349,0.5906 -2.1533,1.7397 0.42212,0.683 0.98146,0.66575 1.69964,-0.0524 0.58876,-0.58876 0.79291,-1.34803 0.45366,-1.68727 z m -0.74986,-8.41653 c 0,-0.55 -0.45,-1 -1,-1 -0.55,0 -1,0.45 -1,1 0,0.55 0.45,1 1,1 0.55,0 1,-0.45 1,-1 z m 8.075,-5.275 c -0.12369,-1.1957 -1.49529,-0.96414 -1.925,0.325 -0.22,0.66 0.14,1.02 0.8,0.8 0.66,-0.22 1.16625,-0.72625 1.125,-1.125 z m 8.67486,-4.30847 c -0.95295,-0.95296 -2.86349,0.5906 -2.1533,1.7397 0.42212,0.683 0.98146,0.66575 1.69964,-0.0524 0.58876,-0.58876 0.79291,-1.34803 0.45366,-1.68727 z m 8.75014,-2.41653 c -0.48382,-0.78284 -1.05907,-0.84093 -1.72574,-0.17426 -0.55,0.55 -0.67341,1.52841 -0.27426,2.17426 0.48382,0.78284 1.05907,0.84093 1.72574,0.17426 0.55,-0.55 0.67341,-1.52841 0.27426,-2.17426 z m 10.65,0.5 c 0,-0.5225 -0.48375,-1.11125 -1.075,-1.30833 -0.59125,-0.19709 -1.075,0.39166 -1.075,1.30833 0,0.91667 0.48375,1.50542 1.075,1.30833 0.59125,-0.19708 1.075,-0.78583 1.075,-1.30833 z m 7.85,-1 c 0,-0.825 -0.45,-1.5 -1,-1.5 -0.55,0 -1,0.675 -1,1.5 0,0.825 0.45,1.5 1,1.5 0.55,0 1,-0.675 1,-1.5 z m -34,-3 c 0,-0.825 -0.45,-1.5 -1,-1.5 -0.55,0 -1,0.675 -1,1.5 0,0.825 0.45,1.5 1,1.5 0.55,0 1,-0.675 1,-1.5 z m 7.075,-2.775 c -0.12369,-1.1957 -1.49529,-0.96414 -1.925,0.325 -0.22,0.66 0.14,1.02 0.8,0.8 0.66,-0.22 1.16625,-0.72625 1.125,-1.125 z m 9.925,-1.225 c 0,-0.825 -0.45,-1.5 -1,-1.5 -0.55,0 -1,0.675 -1,1.5 0,0.825 0.45,1.5 1,1.5 0.55,0 1,-0.675 1,-1.5 z m 8.5,-0.5 c 0.33992,-0.55 -0.0835,-1 -0.94098,-1 -0.85746,0 -1.55902,0.45 -1.55902,1 0,0.55 0.42344,1 0.94098,1 0.51754,0 1.2191,-0.45 1.55902,-1 z m -18.5,-5 c 0,-0.55 -0.45,-1 -1,-1 -0.55,0 -1,0.45 -1,1 0,0.55 0.45,1 1,1 0.55,0 1,-0.45 1,-1 z m 10.5,-1 c 0.33992,-0.55 -0.11008,-1 -1,-1 -0.88992,0 -1.33992,0.45 -1,1 0.33992,0.55 0.78992,1 1,1 0.21008,0 0.66008,-0.45 1,-1 z m 99.8291,61.57288 c -11.24553,-5.23593 -17.29952,-15.65907 -15.91874,-27.40728 0.84436,-7.1842 3.09291,-12.09384 10.15379,-22.17046 6.36581,-9.0847 12.5561,-13.81712 27.19074,-20.78709 8.43,-4.01491 10.73002,-4.25391 24.59515,-2.55573 8.68191,1.06335 10.44589,2.38549 12.54927,9.40594 2.54583,8.49723 0.59604,16.31416 -8.53254,34.20791 -3.79657,7.44201 -6.35823,10.85899 -13.20104,17.60879 -12.21818,12.05211 -15.83671,14.12742 -24.61151,14.11527 -5.33898,-0.007 -8.31153,-0.59517 -12.22512,-2.41735 z m 6.6709,-7.86781 c 8.91972,-3.13729 16.90866,-7.00135 16.96398,-8.20507 0.11485,-2.49908 4.88197,-6.61899 9.02713,-7.80155 5.6154,-1.602 7.15808,-4.28972 6.7864,-11.82359 -0.18022,-3.65307 0.094,-5.48173 0.78209,-5.21607 1.05596,0.40765 6.13794,-6.7004 8.50058,-11.88957 0.68384,-1.50193 2.10082,-3.00293 3.14886,-3.33557 2.28879,-0.72643 4.07908,-4.95051 3.23086,-7.62302 -1.19692,-3.77115 -9.26812,-5.18354 -10.15877,-1.77768 -0.49716,1.90115 -0.68593,1.93183 -2.91191,0.47332 -2.18611,-1.4324 -2.68573,-1.40194 -6.12475,0.37345 -2.05946,1.06319 -5.09447,2.32235 -6.74447,2.79814 -2.05625,0.59292 -3.31458,1.80206 -4,3.8436 -1.59321,4.74545 -2.40595,5.47854 -6.07372,5.47854 -2.77965,0 -3.81829,0.59628 -5.3093,3.04804 -1.01949,1.67642 -3.6897,4.39831 -5.9338,6.04864 -5.09633,3.74788 -7.89736,8.20189 -8.77253,13.9495 -0.45016,2.95643 -1.64181,5.41827 -3.54441,7.32248 -4.73035,4.73433 -3.37025,13.27455 2.49076,15.63976 1.17865,0.47564 2.143,0.89137 2.143,0.92384 0,0.0325 2.925,-0.96977 6.5,-2.22719 z m 10.57946,-16.94345 c -0.97212,-1.48364 -1.5922,-3.2234 -1.37796,-3.86613 0.21425,-0.64273 1.18491,0.0453 2.15702,1.52894 0.97212,1.48364 1.59221,3.22339 1.37796,3.86612 -0.21424,0.64273 -1.1849,-0.0453 -2.15702,-1.52893 z m 10.03959,-14.28543 c -1.80831,-1.8083 -2.12221,-3.47619 -0.65423,-3.47619 1.10719,0 3.43144,3.93707 2.73525,4.63327 -0.25409,0.25408 -1.19055,-0.2666 -2.08102,-1.15708 z m 93.88095,39.68698 c -7.8139,-3.73304 -11.5,-9.58605 -11.5,-18.26039 0,-11.51024 7.07904,-19.47692 19,-21.3824 7.42796,-1.18731 12.96861,-4.20707 20.96203,-11.42471 4.17313,-3.76812 9.14096,-7.79583 11.03963,-8.95049 3.05805,-1.85971 3.42457,-2.53007 3.21062,-5.87227 l -0.24152,-3.77291 1.54656,2.75 c 1.14841,2.04204 2.31632,2.75 4.53664,2.75 2.46732,0 3.50408,-0.81048 5.92997,-4.63571 1.61693,-2.54964 3.12041,-5.13714 3.34107,-5.75 0.22065,-0.61286 0.77363,-0.76596 1.22883,-0.34022 0.45521,0.42574 -0.14193,3.4688 -1.32697,6.76235 -2.36729,6.57937 -2.16289,8.13299 1.60682,12.21358 2.4867,2.69176 2.495,2.75 0.39196,2.75 -1.68992,0 -2.38141,0.90721 -3.23943,4.25 -6.15643,23.98516 -17.21467,41.88091 -29.48621,47.71809 -7.00682,3.33292 -21.20929,3.96155 -27,1.19508 z m 20.67194,-16.26571 c 9.3667,-4.74072 22.15974,-20.36933 26.91253,-32.87764 2.66314,-7.00881 2.54191,-8.39385 -0.66426,-7.58915 -2.2396,0.5621 -2.49677,0.38592 -1.95024,-1.33606 0.57302,-1.80542 0.34755,-1.90266 -2.51085,-1.08289 -3.28377,0.94178 -9.01655,5.72914 -17.45912,14.57987 -4.24577,4.45103 -6.09271,5.5704 -12.2439,7.42062 -9.65698,2.90472 -13.51826,5.60102 -14.67693,10.24878 -1.10869,4.44726 0.19189,7.88767 3.90034,10.31754 5.61429,3.67863 11.84435,3.78492 18.69243,0.31893 z M 338.91714,-414.42722 c -3.85,-1.03659 -8.8,-1.91233 -11,-1.94609 -7.55246,-0.1159 -13.5,-5.97467 -13.5,-13.29849 0,-5.47025 5.56468,-13.37273 15.03531,-21.35183 12.60788,-10.62227 15.05597,-17.16915 7.93512,-21.2207 -3.90227,-2.22028 -3.77014,-3.49857 0.27957,-2.70468 l 3.25,0.63713 -2.5,-2.03543 c -1.375,-1.11949 -2.8375,-2.04544 -3.25,-2.05767 -0.4125,-0.0122 -0.75,-0.47224 -0.75,-1.02224 0,-1.54124 2.16491,-1.19547 6.26118,1 2.05237,1.1 3.90711,2 4.12165,2 0.21455,0 0.67931,-1.9125 1.03281,-4.25 0.8062,-5.33099 2.52504,-8.45527 2.61324,-4.75 0.0545,2.29095 0.2216,2.19315 1.99791,-1.16951 1.06612,-2.01824 3.2205,-4.58245 4.78751,-5.69826 3.34249,-2.38006 13.22338,-6.42789 13.94041,-5.71086 0.27207,0.27208 -2.42275,2.32391 -5.9885,4.55962 -4.76017,2.98463 -6.90806,5.05546 -8.08192,7.79198 -1.60963,3.7524 -3.76652,11.22703 -3.23968,11.22703 0.15586,0 1.53644,-1.80815 3.06794,-4.01811 3.0742,-4.43607 4.08324,-4.67914 2.53655,-0.61103 l -1.00686,2.64824 3.97888,-2.02987 c 2.18838,-1.11643 3.97888,-1.79456 3.97888,-1.50695 0,0.28761 -1.7749,2.12644 -3.94422,4.08629 -8.60421,7.77339 -7.33058,14.39711 4.44422,23.11285 12.6621,9.37251 16.52243,15.8129 14.60182,24.36091 -1.36271,6.06499 -5.25211,9.64314 -12.00251,11.04203 -3.07962,0.63819 -7.97869,2.00529 -10.88682,3.03799 -6.471,2.29792 -8.78268,2.28195 -17.71249,-0.12235 z m 6.66811,-9.12502 c 3.20859,6.48513 5.27692,5.5566 7.4383,-3.33927 l 1.2235,-5.03571 0.0851,5.25 c 0.0932,5.75396 1.11645,6.67125 2.95081,2.64527 2.3866,-5.23801 2.49855,-13.48868 0.26237,-19.33567 -1.14437,-2.99221 -1.93333,-5.58774 -1.75324,-5.76783 0.18009,-0.18009 1.69697,2.26809 3.37083,5.44039 3.66622,6.94822 4.76006,12.7765 3.35375,17.86973 -0.5749,2.08211 -0.8425,3.98842 -0.59467,4.23625 0.78428,0.78428 9.18627,-2.83597 10.7317,-4.62408 5.34446,-6.18369 1.72823,-13.83582 -11.64481,-24.64101 -2.6731,-2.15983 -6.09593,-5.87552 -7.60628,-8.2571 l -2.7461,-4.33014 -1.7563,2.68046 c -1.57063,2.39708 -1.88258,2.50778 -2.95068,1.04706 -1.0576,-1.44635 -1.65721,-1.1513 -5.23625,2.57664 -2.22303,2.31552 -5.26683,6.34753 -6.764,8.96003 -3.08643,5.38569 -3.87049,5.94651 -2.89833,2.0731 l 0.67186,-2.67691 -2.90281,2.09315 c -7.79982,5.62427 -12.42773,12.38107 -12.38057,18.07576 l 0.0222,2.6849 1.95553,-2.5 1.95553,-2.5 0.0222,3.75 c 0.0122,2.0625 0.47223,3.75 1.02223,3.75 0.55,0 1,-0.71949 1,-1.59887 0,-2.11314 3.01035,-8.40113 4.022,-8.40113 0.43677,0 0.0832,2.22322 -0.78578,4.94048 -1.29971,4.06431 -1.35036,5.21706 -0.28562,6.5 3.96767,4.78075 8.61903,-0.94551 10.73691,-13.21815 1.35944,-7.87764 2.95311,-12.94647 3.7911,-12.05798 0.17411,0.18461 -0.12085,3.03565 -0.65546,6.33565 -1.15659,7.13915 -0.34577,14.79891 1.98764,18.77723 l 1.68921,2.87999 0.31361,-4.20363 0.3136,-4.20363 2.0409,4.12502 z m 23.31308,-10.37498 c -0.40944,-2.2 -1.20888,-4.9 -1.77654,-6 -0.94333,-1.82801 -0.88006,-1.87454 0.73581,-0.5411 2.51304,2.07381 3.64961,5.63387 2.64382,8.28114 -0.77087,2.02893 -0.93474,1.85106 -1.60309,-1.74004 z m -20.98047,-8.49575 c -0.84056,-4.97521 0.31955,-12.89745 1.59399,-10.88524 1.161,1.83308 1.15599,13.60802 -0.006,14.32622 -0.50126,0.3098 -1.21581,-1.23864 -1.58789,-3.44098 z m 134.96456,29.04423 c -1.11909,-0.45362 -2.60926,-1.51704 -3.31148,-2.36316 -1.02233,-1.23183 -1.87791,-1.32886 -4.29323,-0.48687 -2.13328,0.74367 -3.7157,0.73296 -5.40465,-0.0366 -1.82195,-0.83014 -3.22802,-0.73721 -5.93047,0.39194 -3.47663,1.45263 -7.77863,1.14729 -10.16369,-0.72139 -0.62603,-0.49049 -2.92065,-0.60678 -5.09915,-0.25842 -7.49049,1.19777 -13.19892,-4.10481 -11.82779,-10.98689 0.39167,-1.9659 0.0407,-3.50915 -1.07951,-4.74699 -2.49209,-2.75373 -1.96017,-7.92277 1.08484,-10.54215 1.50054,-1.29079 2.55985,-3.25644 2.55985,-4.75 0,-1.40139 0.9,-3.44797 2,-4.54797 1.1,-1.1 2,-2.86547 2,-3.92327 0,-1.05781 1.165,-3.30781 2.58889,-5 1.95918,-2.32835 3.41861,-3.07673 6,-3.07673 2.78656,2e-5 3.41111,-0.38025 3.41111,-2.0769 0,-3.1443 5.30058,-7.92308 8.78822,-7.92308 3.28328,0 8.21178,3.35993 8.21178,5.59826 0,1.2544 0.40344,1.24448 2.95034,-0.0726 4.16121,-2.15184 6.44089,-1.90881 9.97293,1.06321 2.30885,1.94277 3.07673,3.4255 3.07673,5.94099 0,1.84365 -0.45122,3.63095 -1.0027,3.97179 -2.1972,1.35795 0.9708,4.49833 4.53788,4.49833 2.24998,0 4.131,0.73631 5.36482,2.1 2.38111,2.63176 3.36824,3.61889 6,6 1.24444,1.12593 2.1,3.12222 2.1,4.9 0,2.29568 0.45251,3 1.92742,3 2.06456,0 6.07258,4.37913 6.07258,6.63486 0,0.85468 1.13876,1.36514 3.04545,1.36514 3.43793,0 7.95455,3.82247 7.95455,6.73204 0,4.92961 -6.60549,8.61983 -11.11218,6.20792 -1.8036,-0.96525 -2.43564,-0.91366 -3.30865,0.27009 -3.05813,4.14659 -9.66709,4.56025 -13.0546,0.8171 -1.63487,-1.80652 -1.78424,-1.79066 -5.24324,0.55668 -3.73902,2.53737 -5.46298,2.82378 -8.81605,1.46465 z m 5.57422,-3.59607 c 1.63243,-1.96696 0.75427,-6.53174 -1.54885,-8.05117 -5.08138,-3.35231 -10.47447,5.3954 -5.48215,8.89216 2.30817,1.61671 5.287,1.2604 7.031,-0.84099 z m 15.9605,0.54759 c 2.49535,-2.49535 2.51949,-4.13689 0.10467,-7.11907 -1.62913,-2.01188 -2.29628,-2.20047 -4.75,-1.34273 -3.87073,1.3531 -4.56108,6.50339 -1.18836,8.86574 2.92027,2.04543 3.41884,2.01091 5.83369,-0.40394 z m -42.82874,-2.65499 c 3.9317,-3.55813 0.9368,-10.34501 -4.56503,-10.34501 -5.18184,0 -7.60709,7.48513 -3.38372,10.4433 2.87032,2.01045 5.65669,1.97599 7.94875,-0.0983 z m 55.89448,0.61981 c 2.27427,-1.21716 2.55619,-5.20377 0.4893,-6.91914 -0.79472,-0.65956 -2.48222,-1.05216 -3.75,-0.87244 -1.80917,0.25647 -2.37478,1.05713 -2.62922,3.7219 -0.43533,4.55908 1.92637,6.19091 5.88992,4.06968 z m -42.89448,-1.61981 c 2.08906,-1.89057 2.39593,-5.37782 0.62874,-7.14501 -0.66,-0.66 -2.69465,-1.2 -4.52144,-1.2 -4.47849,0 -6.38895,3.65638 -3.89736,7.45904 1.91552,2.92344 5.13419,3.2895 7.79006,0.88597 z m -26.10202,-0.92844 c 3.21587,-3.87488 0.85233,-10.41657 -3.76355,-10.41657 -5.46988,0 -8.28458,6.15586 -4.6507,10.17126 2.03474,2.24837 6.64042,2.38264 8.41425,0.24531 z m 48.96665,-5.48363 c 0.86054,-1.60793 0.75218,-2.60745 -0.48787,-4.5 -1.76157,-2.6885 -2.74463,-2.93327 -5.61376,-1.39776 -2.16212,1.15713 -2.57138,4.9277 -0.73426,6.76482 1.88637,1.88637 5.61544,1.41338 6.83589,-0.86706 z m 10.96411,-3.23294 c 0,-2.95147 -1.7736,-4.7 -4.76739,-4.7 -1.98643,0 -2.25983,0.36206 -1.69902,2.25 1.3474,4.53595 6.46641,6.47544 6.46641,2.45 z m -20.92292,-2.84402 c 0.71739,-1.34046 0.63289,-2.69252 -0.28906,-4.62509 -2.54129,-5.327 -10.27492,-3.21334 -9.59231,2.62166 0.55768,4.76713 7.6344,6.20193 9.88137,2.00343 z m -15.06286,-0.66641 c 2.74797,-2.22517 2.9738,-6.99394 0.41965,-8.86158 -5.78501,-4.23011 -12.59938,3.51668 -7.77888,8.84327 2.09706,2.31723 4.51276,2.32324 7.35923,0.0183 z m -30.11123,-0.79106 c 2.57116,-1.28266 3.14922,-2.1251 2.90364,-4.2316 -0.43178,-3.70355 -4.93651,-5.26433 -7.77635,-2.69431 -2.26575,2.05047 -2.65673,5.50095 -0.83028,7.3274 1.53967,1.53967 1.85656,1.51736 5.70299,-0.40149 z m 17.84701,-1.19061 c 2.00593,-2.5518 1.51624,-6.90801 -0.97251,-8.6512 -2.99128,-2.09517 -5.37488,-1.95931 -7.77749,0.4433 -2.69102,2.69102 -2.51805,5.57286 0.51665,8.60756 2.72967,2.72967 5.89418,2.57605 8.23335,-0.39966 z m 39.42126,-1.86289 c 2.10469,-1.90471 2.36127,-4.41248 0.62874,-6.14501 -1.65776,-1.65776 -5.3031,-1.50366 -6.78922,0.28701 -1.60712,1.93646 -0.51096,6.23552 1.7399,6.8238 0.96213,0.25145 1.93889,0.50939 2.17058,0.57319 0.23169,0.0638 1.24419,-0.62874 2.25,-1.53899 z m -6.65019,-8.01751 c 1.25688,-1.91824 1.47025,-3.11771 0.75602,-4.25 -1.4028,-2.22389 -5.27906,-1.96018 -6.89189,0.46888 -1.15876,1.74518 -1.13157,2.37072 0.18473,4.25 2.04556,2.92044 3.82208,2.78047 5.95114,-0.46888 z m -42.90888,-0.91848 c 0.47896,-1.90831 0.0832,-3.15808 -1.50206,-4.74334 -2.00714,-2.00714 -2.33648,-2.04934 -4.88125,-0.6256 -3.61054,2.02003 -4.30077,5.95376 -1.04843,5.97523 1.27575,0.008 2.99455,0.45153 3.81955,0.98469 2.2999,1.48631 2.90695,1.21894 3.61219,-1.59098 z m 32.85134,-0.36873 c 2.17872,-2.40745 1.41068,-6.50206 -1.51311,-8.06682 -2.9427,-1.57489 -5.34051,-0.42764 -6.71456,3.21262 -1.01701,2.69438 -0.94933,3.47304 0.43481,5.0025 2.1445,2.36964 5.57321,2.30439 7.79286,-0.1483 z m -14.03114,-5.37466 c 1.85415,-5.18041 -5.29464,-8.91024 -9.60365,-5.01064 -3.30867,2.9943 -1.67879,7.92889 3.17126,9.60125 2.14221,0.73867 5.3424,-1.54522 6.43239,-4.59061 z m -12.91685,-2.71459 c 0.97981,-3.08711 -1.98779,-6.95104 -5.33859,-6.95104 -1.52732,0 -3.31695,0.54 -3.97695,1.2 -1.61456,1.61456 -1.57421,5.87449 0.05,5.27873 0.6875,-0.25218 2.375,0.16782 3.75,0.93333 3.55371,1.97848 4.77364,1.87651 5.51554,-0.46102 z m 27.08589,-5.21913 c 1.29644,-1.29645 -0.73219,-5.83437 -3.08805,-6.90777 -5.11338,-2.32981 -10.00398,4.54241 -6.04792,8.49847 1.21483,1.21482 2.06679,1.25873 4.98133,0.25676 1.93373,-0.66478 3.80331,-1.49614 4.15464,-1.84746 z m -18.16653,-2.70716 c 3.6084,-1.37191 3.64966,-6.57347 0.0651,-8.2067 -3.73814,-1.70322 -7.5,0.2833 -7.5,3.96051 0,4.73834 2.45407,6.1399 7.4349,4.24619 z m 121.24351,48.52458 c -7.72083,-2.75345 -8.56568,-8.46856 -3.11167,-21.04933 1.96945,-4.54292 3.28454,-6.7036 3.04324,-5 -0.23371,1.65 -1.14156,4.67305 -2.01745,6.71788 -3.66604,8.55865 -0.65305,16.80066 6.21304,16.99573 6.40287,0.18191 11.0073,-5.79344 11.13799,-14.45419 0.031,-2.05732 1.85644,-8.47406 4.05644,-14.25942 2.44448,-6.42827 4,-12.2127 4,-14.87456 0,-7.4796 -5.42977,-11.92521 -11.6806,-9.56346 -4.01704,1.51776 -8.0883,5.70776 -9.39595,9.66997 -1.80726,5.47604 -2.25934,2.9353 -0.53384,-3.00021 2.052,-7.05864 4.79106,-10.40598 9.72451,-11.88408 3.46928,-1.03942 3.76394,-1.3393 2.19635,-2.23529 -1.97178,-1.12703 -2.98291,-1.39886 -8.42123,-2.26397 -4.9656,-0.78991 -10.4205,1.9859 -13.72848,6.98595 -2.559,3.86796 -2.65035,4.48103 -2.38856,16.02976 0.14972,6.60439 -0.20251,15.4751 -0.78271,19.71268 -0.85179,6.22112 -0.77599,8.51432 0.39365,11.90922 l 1.44857,4.20452 -2.39069,-2.24594 c -3.39242,-3.18701 -5.83642,-10.10779 -4.99773,-14.1523 0.37549,-1.81076 0.99186,-10.79788 1.36971,-19.97137 0.60815,-14.76468 0.92855,-17.00286 2.79153,-19.5 4.92633,-6.60327 15.45558,-8.87059 21.26123,-4.57829 l 2.97885,2.20236 -0.8525,-2.97249 c -1.02006,-3.55675 -0.4806,-3.738 2.15045,-0.7225 l 1.96315,2.25 -0.68575,-2.5 -0.68576,-2.5 2.25969,2 2.25969,2 2.12321,-2.96603 c 4.55443,-6.36233 11.81599,-13.33822 14.41569,-13.84859 3.56042,-0.69897 5.40701,1.1208 2.70752,2.66819 -2.79385,1.60148 -13.5,12.56463 -13.5,13.82407 0,0.56999 0.675,0.77732 1.5,0.46073 0.825,-0.31658 1.5,-0.13115 1.5,0.41207 0,0.55313 1.20988,0.72933 2.75,0.40048 2.63238,-0.56206 2.66698,-0.52011 0.80887,0.98095 -1.06762,0.86247 -2.33168,1.56813 -2.80902,1.56813 -0.47733,0 -0.61588,0.40774 -0.30788,0.9061 0.32845,0.53145 2.00028,0.46406 4.04336,-0.16298 5.06259,-1.55375 11.03221,0.44575 13.61816,4.56135 3.07707,4.89723 2.09937,11.11533 -3.47083,22.07422 -2.54991,5.01672 -5.91495,13.48028 -7.47788,18.80791 -1.56292,5.32763 -3.62213,10.87771 -4.57601,12.33352 -1.88986,2.8843 -8.01458,5.9466 -9.74922,4.87453 -0.62054,-0.38351 0.18744,-1.2029 1.89351,-1.92025 4.02525,-1.69249 7.06731,-6.95298 8.78513,-15.19168 1.76565,-8.46812 3.40825,-13.18627 7.25379,-20.83556 4.04459,-8.04523 4.67108,-11.47493 2.87938,-15.76308 -1.81658,-4.34768 -4.66578,-5.95731 -10.34332,-5.84335 -2.40453,0.0483 -4.12964,-0.30419 -3.83358,-0.78323 0.29607,-0.47904 -0.38571,-0.62935 -1.51506,-0.33402 l -2.05335,0.53697 2.07586,2.20965 c 4.96849,5.28871 5.16604,13.12044 0.60343,23.92219 -1.88356,4.45924 -4.14974,11.48271 -5.03597,15.60771 -2.75562,12.82629 -3.77646,15.25819 -7.43725,17.7174 -3.85457,2.58939 -6.9201,2.79467 -12.42371,0.83193 z m 88.32159,-0.56023 c 0,-2.19223 4.69114,-10.92471 10.41676,-19.39065 6.0399,-8.93063 22.07046,-26.44457 23.18481,-25.33021 0.32715,0.32715 2.99332,-1.35879 5.92483,-3.74654 2.9315,-2.38774 6.37481,-4.66597 7.6518,-5.06272 1.27699,-0.39675 3.4468,-1.49671 4.8218,-2.44435 3.79948,-2.61857 7.64836,-3.20027 12.18384,-1.8414 3.43563,1.02933 4.42553,1.95011 6.05378,5.63105 2.20021,4.97393 1.79503,9.97924 -1.00718,12.44192 -0.95174,0.83643 -3.75544,2.53366 -6.23044,3.77162 -2.475,1.23797 -4.73403,2.61204 -5.02007,3.05349 -0.63848,0.98539 -9.6971,4.92869 -11.32229,4.92869 -0.6471,0 -1.73861,0.9 -2.42557,2 -0.69293,1.10956 -2.33202,2 -3.68153,2 -1.33788,0 -2.68922,0.41538 -3.00299,0.92306 -0.31377,0.50769 -2.02782,1.23674 -3.80902,1.62012 -5.13586,1.10544 -15.55403,7.72559 -24.22539,15.39387 -7.90611,6.99154 -9.51314,8.01389 -9.51314,6.05205 z m 16.9104,-15.60232 c 1.03259,-1.31273 2.48768,-2.37101 3.23352,-2.35174 2.32648,0.0601 12.76907,-5.46939 12.81369,-6.78504 0.0256,-0.75383 1.43167,-1.25 3.54239,-1.25 2.44444,0 3.5,-0.45238 3.5,-1.5 0,-0.825 0.47656,-1.5 1.05902,-1.5 0.58246,0 0.85215,-0.3375 0.59932,-0.75 -0.25282,-0.4125 1.00581,-0.78106 2.79696,-0.81902 5.00085,-0.10599 9.48785,-2.35627 10.17752,-5.10414 0.33405,-1.33099 0.81963,-2.20772 1.07906,-1.94829 0.78226,0.78225 9.72728,-3.41285 10.59958,-4.97108 0.4463,-0.79724 1.18264,-1.22013 1.63631,-0.93975 1.04653,0.64679 2.09231,-3.1997 1.37684,-5.06417 -0.8206,-2.13846 -2.32461,-1.67334 -2.32461,0.71889 0,1.76912 -0.24862,1.91611 -1.49348,0.88297 -1.20036,-0.99621 -2.17543,-0.91587 -4.96809,0.40933 -1.91104,0.90685 -3.95596,2.42201 -4.54427,3.36704 -0.83277,1.3377 -1.00433,0.66629 -0.7747,-3.03178 0.16222,-2.6125 0.22366,-4.75 0.13652,-4.75 -0.44363,0 -4.35598,7.24917 -4.35598,8.07118 0,1.3504 -4.34454,7.9015 -5.25,7.91644 -0.4125,0.007 -0.77161,-2.12512 -0.79803,-4.73762 l -0.048,-4.75 -1.70197,3.14973 c -0.93608,1.73236 -2.56722,4.82564 -3.62474,6.87397 -1.77948,3.4467 -2.02168,3.58897 -3.25,1.90914 -0.72998,-0.99831 -1.36276,-3.19159 -1.40618,-4.87397 -0.0671,-2.59996 -0.37966,-2.19622 -2.08333,2.69113 -1.10241,3.1625 -2.41689,5.75 -2.92105,5.75 -0.50417,0 -0.91667,0.675 -0.91667,1.5 0,2.20751 -2.65915,1.82472 -4.37873,-0.63033 -1.48309,-2.11741 -1.50465,-2.10982 -3.55297,1.25 -1.13345,1.85918 -2.06251,4.07225 -2.06456,4.91792 -0.002,0.84568 -2.28985,3.77068 -5.08399,6.5 -2.79414,2.72933 -6.50114,6.76241 -8.23779,8.96241 -3.04849,3.86186 -2.94154,3.81478 3.09673,-1.36322 3.43985,-2.94977 7.09912,-6.43727 8.13171,-7.75 z m 54.81583,-37.4018 c -0.91997,-2.34204 -1.33163,-4.86768 -0.91478,-5.61254 1.82065,-3.25333 21.44052,-23.33475 22.28718,-22.81148 1.23231,0.76161 -2.04935,5.27547 -10.07193,13.85377 -4.42847,4.73523 -5.40151,6.1478 -3.0267,4.3939 4.63376,-3.42225 13.88141,-8.01483 15.23212,-7.56459 0.5906,0.19687 -0.90751,1.85732 -3.32915,3.6899 -2.42163,1.83258 -3.50297,3.00092 -2.40297,2.59632 10.51606,-3.86803 12.5,-4.36682 12.5,-3.14268 0,0.70392 -5.2875,3.82345 -11.75,6.93229 -6.4625,3.10884 -11.52203,5.65867 -11.2434,5.66628 1.03378,0.0283 6.65623,-1.82389 11.90737,-3.92252 4.54492,-1.81639 5.19016,-1.89402 4.01962,-0.48362 -1.27351,1.53449 -1.10355,1.61623 1.96113,0.94311 5.68283,-1.24816 2.6685,0.98946 -4.09695,3.04128 -5.81145,1.76249 -6.06611,1.95503 -3.29777,2.49332 l 3,0.58334 -4,1.19524 c -2.2,0.65739 -6.49774,1.46787 -9.55054,1.80108 l -5.55054,0.60584 -1.67269,-4.25824 z m -414.4448,-128.95461 c -11.32589,-2.69166 -25.019,-14.06839 -30.25544,-25.13729 -3.37905,-7.14271 -3.69317,-9.61314 -1.5833,-12.45195 1.39281,-1.87401 1.54701,-1.8201 4.45936,1.55887 1.65917,1.925 3.03496,3.82992 3.05731,4.23315 0.0708,1.27726 9.44971,5.55897 15.75638,7.19319 12.38543,3.20939 23.55785,1.63487 36.53996,-5.14955 5.41196,-2.82828 9.15564,-6.08213 18.82162,-16.359 6.63626,-7.05566 12.98988,-13.12173 14.11915,-13.48015 2.52225,-0.80053 3.76744,0.92464 3.78822,5.24849 0.0133,2.76373 -0.7738,3.73966 -5.93691,7.36138 -5.60452,3.93134 -6.01915,4.50464 -7.09774,9.81387 -2.51847,12.39686 -12.26886,26.62572 -22.24319,32.45977 -8.50772,4.97621 -20.33642,6.86927 -29.42542,4.70922 z m 23.50545,-5.08174 c 7.38354,-3.68959 15.08327,-11.76163 19.40518,-20.34346 l 3.07464,-6.10517 -4.88335,4.54151 c -12.01908,11.17775 -21.00033,15.27913 -33.38335,15.24485 -9.65614,-0.0267 -17.50262,-2.25018 -27.83975,-7.88894 l -6.33975,-3.45824 2.3127,3.24789 c 8.34259,11.71608 19.47698,17.62071 33.45708,17.74247 7.09836,0.0618 8.83895,-0.30366 14.1966,-2.98091 z m -0.10727,-12.92977 c 7.20731,-3.32152 13.90118,-9.14898 17.15082,-14.93093 1.26364,-2.24836 2.02444,-4.08793 1.69065,-4.08793 -0.33379,0 -2.97799,1.79019 -5.876,3.97821 -4.92735,3.72019 -19.21617,11.02179 -21.56902,11.02179 -1.94932,0 -14.07606,5.20348 -14.07606,6.03992 0,2.9278 14.80366,1.6086 22.67961,-2.02106 z m 112.82039,17.82641 c -5.00205,-2.73591 -5.88621,-8.44557 -2.52286,-16.29194 l 1.97714,-4.61247 -3.05049,-0.6101 c -2.55192,-0.51039 -2.95883,-0.97532 -2.48967,-2.84463 0.49233,-1.96157 0.0832,-2.31089 -3.34926,-2.85977 -14.46966,-2.31379 -15.55222,-21.37848 -2.04596,-36.03104 12.26894,-13.31022 32.79494,-13.64168 45.62764,-0.7368 6.30911,6.34459 8.82812,12.24739 8.84193,20.71932 0.0101,6.22557 -0.32658,7.52113 -2.7964,10.75923 -3.7313,4.89199 -9.83244,7.95498 -14.88554,7.47309 -3.64676,-0.34778 -3.87463,-0.21763 -3.34105,1.90831 0.39865,1.58838 0.13282,2.28153 -0.875,2.28153 -3.33942,0 -4.33073,2.55399 -3.2677,8.41878 1.22847,6.77753 -0.18356,10.20515 -5.04066,12.23585 -3.85363,1.61117 -10.01691,1.70309 -12.78212,0.19064 z m 11.66079,-3.93132 c 1.83261,-0.98079 1.99587,-1.8774 1.68426,-9.25 -0.32413,-7.66905 -0.20865,-8.22379 1.90495,-9.15108 4.24653,-1.86305 1.95849,-4.23199 -5.84023,-6.04674 -2.06253,-0.47995 -2.94416,-0.0626 -4.3275,2.04865 -1.6213,2.47442 -1.62555,2.73309 -0.0637,3.87516 1.54332,1.1285 1.55255,1.63138 0.11862,6.45996 -1.68392,5.67036 -1.00021,9.5467 2.09894,11.9001 1.9937,1.51396 1.90804,1.51078 4.42463,0.16395 z m -9.72877,-30.07184 c 4.41144,-0.88595 7.6122,-0.87521 13.62804,0.0457 11.70929,1.79248 15.2495,-0.54124 15.11941,-9.96678 -0.0692,-5.01152 -2.23626,-8.95784 -7.29874,-13.29114 -5.33866,-4.56969 -9.65698,-5.9588 -16.89627,-5.43516 -10.65436,0.77067 -18.90665,8.82185 -19.77501,19.29307 -0.39368,4.74735 -0.14793,5.66462 2.12727,7.93981 2.87936,2.87937 4.77926,3.08458 13.0953,1.41448 z m 94.0304,33.65789 c 3.38964,-9.1347 3.34737,-9.28302 -2.00787,-7.04546 -2.0689,0.86444 -3.98194,1.3514 -4.25122,1.08212 -0.26927,-0.26927 0.22282,-0.76296 1.09355,-1.09709 0.87072,-0.33413 2.25025,-1.62565 3.06561,-2.87005 1.42319,-2.17206 1.3756,-2.24687 -1.19001,-1.87083 -2.25001,0.32979 -2.04015,0.051 1.32752,-1.76383 9.43105,-5.08224 11.6878,-9.04833 14.95317,-26.27914 2.59812,-13.70989 7.87017,-22.24626 16.41238,-26.57451 6.73553,-3.41282 10.48843,-3.47998 30.20209,-0.54044 3.71789,0.55438 4.91427,0.33488 6.43081,-1.17984 1.81695,-1.81476 1.8486,-1.80511 1.27598,0.38907 -0.66805,2.55983 -0.43465,2.67371 2.38594,1.16417 1.81615,-0.97197 1.95494,-0.85284 1.32365,1.13617 -0.6296,1.98371 -0.43523,2.15423 1.81247,1.59009 1.38474,-0.34754 3.34701,-0.93184 4.36061,-1.29842 1.28221,-0.46374 1.00623,0.12893 -0.9071,1.94798 -3.05526,2.90474 -3.53112,4.71001 -1.24153,4.71001 1.2456,0 1.29612,0.34004 0.28987,1.9513 -0.95626,1.53122 -0.95809,3.21264 -0.008,7.8102 1.98357,9.6035 1.54826,17.97028 -1.24739,23.97503 -3.38347,7.26733 -10.40339,13.84772 -16.79874,15.74693 -7.05225,2.09429 -19.05761,1.89684 -29.7716,-0.48967 -8.1166,-1.80794 -9.35133,-1.86219 -12.49421,-0.54902 -2.01048,0.84004 -4.37438,2.96029 -5.58151,5.00621 -2.46319,4.1748 -3.31351,4.51119 -2.65167,1.04902 0.67712,-3.54214 -0.32677,-3.1209 -4.17061,1.75 -1.84463,2.3375 -3.0199,3.35 -2.61172,2.25 z m 56.40075,-12.42766 c 6.13842,-3.13516 12.64459,-10.17945 14.54023,-15.74286 1.63103,-4.78682 1.96701,-13.84362 0.67996,-18.32948 -0.68218,-2.37764 -0.78187,-2.30423 -2.03684,1.5 -3.58083,10.85463 -10.10406,18.93789 -18.90727,23.42896 -6.64261,3.38881 -6.80005,2.36011 -0.30281,-1.97857 9.94925,-6.64386 17.12143,-19.83684 16.0103,-29.45039 -0.34101,-2.95045 -0.45329,-3.005 -6.79736,-3.30293 -9.4668,-0.44456 -18.77041,4.34417 -29.46671,15.16703 -5.66254,5.72955 -7.37129,7.04635 -6,4.62377 1.05453,-1.86297 5.10949,-6.66506 9.01102,-10.67131 8.00156,-8.21633 15.27867,-12.19424 24.32295,-13.29576 3.12677,-0.38081 4.92339,-0.96763 4.08336,-1.33373 -10.20277,-4.44656 -20.76438,-4.94145 -28.50728,-1.33576 -5.22817,2.43464 -10.28105,7.40425 -13.12851,12.91219 -1.48957,2.88131 -1.00309,2.61619 4.43281,-2.41583 4.64339,-4.2984 7.68989,-6.17942 12.71837,-7.85279 7.17861,-2.38889 10.00793,-2.07603 3.98473,0.44062 -10.47758,4.37782 -20.03879,15.09344 -23.51788,26.35743 -2.36574,7.65936 -2.65737,15.20707 -0.58758,15.20707 3.73957,0 14.80955,-4.3749 19.66141,-7.77026 8.09673,-5.66615 8.42161,-5.79486 5.85094,-2.31784 -2.63079,3.55834 -10.66799,9.97284 -15.65701,12.49588 -1.7875,0.90397 -3.25082,1.74452 -3.25182,1.8679 -10e-4,0.12338 2.8115,0.1234 6.25,6e-5 6.78308,-0.24333 6.67827,0.29648 -0.3064,1.57808 l -4.44178,0.81502 4.5,1.12102 c 7.35282,1.83172 21.71146,0.91369 26.86317,-1.71751 z m 100.63683,10.92766 c -3.26735,-2.59656 -4.59942,-3 -9.90537,-3 -8.40223,0 -12.28433,-2.69363 -16.096,-11.16836 -3.28453,-7.30268 -4.43477,-18.68249 -2.58148,-25.53959 1.54937,-5.73263 6.75854,-12.28436 12.12955,-15.25571 8.54966,-4.72984 18.3911,-2.53916 26.39039,5.87445 2.33701,2.45805 3.76719,3.09121 7,3.09898 5.0619,0.0122 13.53118,3.86313 16.33484,7.42742 5.00159,6.35848 5.29129,14.55773 0.82573,23.37009 -3.14688,6.21006 -8.72525,11.19694 -16.87688,15.08735 -8.34026,3.98044 -12.31404,4.00475 -17.22078,0.10537 z m 11.42789,-2.09722 c 1.88534,-1.14936 5.76111,-4.47957 8.61282,-7.40047 15.54809,-15.92533 13.52643,-34.50231 -3.75475,-34.50231 -3.58129,0 -4.9445,-0.55605 -7.24176,-2.95387 -3.36333,-3.51055 -8.35827,-6.04613 -11.91053,-6.04613 -3.51813,0 -9.21346,5.25118 -12.37505,11.40998 -2.03629,3.9667 -2.70806,6.96588 -3.04397,13.59002 -0.76293,15.04501 2.59043,21.78321 11.31835,22.74292 3.13537,0.34477 6.00938,1.41477 7.79373,2.90163 3.48236,2.90178 6.15794,2.96695 10.60116,0.25823 z m 1.06024,-49.53034 c -0.007,-2.67984 -0.7187,-7.34744 -1.5826,-10.37244 -2.72908,-9.55598 -2.77618,-10 -1.06085,-10 1.97491,0 4.64455,8.51397 4.68193,14.9315 l 0.0266,4.5685 1.59011,-2.56064 c 3.81075,-6.13665 12.55568,-8.71519 19.98169,-5.89183 l 2.75522,1.04754 -5.79967,3.85143 c -3.18982,2.11828 -8.56288,4.62028 -11.94012,5.55999 -3.37725,0.9397 -6.70295,2.16527 -7.39045,2.72348 -0.96759,0.78562 -1.25268,-0.0859 -1.26187,-3.85753 z"
       id="path2996-3"
       inkscape:connector-curvature="0" />
    <path
       style="fill:#ffffff;fill-opacity:1"
       d="m 381.73901,269.68544 c -0.94626,-0.0512 -3.66547,1.35636 -8.28346,4.23073 -5.2617,3.27517 -12.6921,11.21193 -12.6921,13.53832 0,0.72365 -1.33873,1.29148 -2.98385,1.29148 -5.28593,0 -12.39824,-4.3361 -14.69605,-8.99586 l -2.22684,-4.54246 0,5.43314 c -0.0331,5.54192 3.00622,13.15978 5.61142,14.02819 0.80018,0.26677 -3.20346,0.48988 -8.90679,0.48988 -15.25626,0 -23.08383,4.28992 -28.81353,15.72048 -5.52863,11.02933 -5.84214,23.29439 -0.84622,34.55834 5.46848,12.32886 18.73803,21.62319 30.95116,21.68803 3.24107,0.0172 8.05074,0.94808 10.68815,2.09309 5.99847,2.60428 19.32744,2.77452 24.04833,0.31174 1.95949,-1.02224 7.0898,-2.00544 11.40068,-2.18216 14.546,-0.59636 28.02461,-9.86538 35.89436,-24.71634 2.60093,-4.90837 3.2311,-8.43943 3.25105,-17.76904 0.0225,-10.64152 -0.34729,-12.16145 -4.27526,-17.81358 -2.47195,-3.55684 -7.008,-7.58083 -10.68814,-9.48573 -5.45823,-2.82508 -7.9413,-3.19875 -16.96751,-2.67204 -7.95255,0.46406 -10.03232,0.21072 -8.46145,-0.97974 2.51528,-1.90617 6.9473,-8.1509 6.9473,-9.79747 0,-0.64928 -2.08419,0.37741 -4.63153,2.31577 -6.3727,4.84924 -12.17152,6.21501 -13.36018,3.11737 -1.13708,-2.96294 1.21816,-8.2549 6.81362,-15.31967 2.37277,-2.99575 3.17295,-4.49132 2.22684,-4.54247 z m -4.76521,26.45316 c 6.23903,0.14052 19.30094,3.1635 23.8702,6.14569 10.80714,7.05341 14.92806,25.41165 8.81772,39.18987 -4.60659,10.38744 -15.39122,18.52612 -24.58274,18.52612 -2.20161,0 -6.8739,1.60513 -10.37648,3.56271 -9.92843,5.54923 -17.67021,5.67827 -37.14116,0.57894 -6.17433,-1.61696 -14.48586,-8.37688 -17.54652,-14.29539 -10.89877,-21.07621 1.51458,-48.27479 22.04437,-48.27479 6.75021,0 8.21819,1.57238 4.54247,4.89873 -1.47654,1.33633 -4.09428,5.75349 -5.83388,9.79747 -2.66263,6.18915 -3.05196,9.06094 -2.40497,18.08078 1.19636,16.6705 3.56314,20.60322 3.42918,5.70034 -0.18255,-20.30198 6.44196,-29.28273 21.55443,-29.1252 18.59737,0.19386 25.06897,11.70741 19.50586,34.82555 -0.55977,2.32622 -0.10004,1.87539 1.38063,-1.33602 3.17167,-6.87963 4.31074,-19.96151 2.27116,-26.14143 -0.92688,-2.80866 -4.20985,-7.40328 -7.30357,-10.19827 -3.78588,-3.42038 -4.8413,-5.07687 -3.25105,-5.07687 2.19449,0 2.19478,-0.15778 0,-2.58297 -1.29711,-1.43336 -2.36022,-2.94455 -2.36022,-3.34004 0,-0.70251 1.30495,-0.98206 3.38457,-0.93522 z m -19.77307,1.29149 c 3.13519,0 7.16662,0.79047 8.95126,1.78136 3.03315,1.68384 2.84917,1.80294 -2.58283,1.73682 -3.19647,-0.0389 -7.22804,-0.87392 -8.95139,-1.82589 -2.88124,-1.59149 -2.6585,-1.69229 2.58296,-1.69229 z"
       id="path2996-3-3"
       inkscape:connector-curvature="0" />
    <path
       style="fill:#ffffff;fill-opacity:1"
       d="m 543.1656,247.62223 c -0.56879,0.0208 -1.18606,0.10152 -1.84194,0.23024 -3.83079,0.75205 -14.51727,11.02425 -21.22826,20.39946 l -3.1313,4.37461 -3.31548,-2.9471 -3.36162,-2.9471 1.01307,3.68387 1.01307,3.68388 -2.90098,-3.31549 c -3.87706,-4.44349 -4.68044,-4.18194 -3.17742,1.05911 l 1.28936,4.37461 -4.42065,-3.22339 c -8.555,-6.32493 -24.05366,-3.00718 -31.31296,6.72307 -2.74507,3.67966 -3.20217,6.97773 -4.09838,28.73424 -0.55671,13.5176 -1.47267,26.75671 -2.02613,29.42496 -1.23587,5.95979 2.36902,16.16373 7.36775,20.85995 l 3.49968,3.31549 -2.11808,-6.21654 c -1.72361,-5.00256 -1.85387,-8.37733 -0.5987,-17.54446 0.85495,-6.24429 1.37173,-19.27863 1.15128,-29.01053 -0.38592,-17.01764 -0.22516,-17.92322 3.54566,-23.62286 4.8745,-7.36783 12.89828,-11.47883 20.21535,-10.31485 8.01346,1.27478 9.52738,1.65475 12.43293,3.31549 2.30994,1.32028 1.84282,1.78385 -3.26937,3.31548 -7.26961,2.17806 -11.29741,7.09715 -14.32099,17.49842 -2.54276,8.74627 -1.8804,12.48987 0.78275,4.42065 1.92681,-5.83852 7.94126,-11.99248 13.86051,-14.22897 9.21102,-3.48016 17.22227,3.06925 17.22227,14.09082 0,3.92239 -2.29211,12.44669 -5.8942,21.91907 -3.24196,8.52502 -5.94077,17.96653 -5.98645,20.9981 -0.19244,12.76205 -6.9581,21.58848 -16.39325,21.32043 -10.11755,-0.28744 -14.5656,-12.43876 -9.16357,-25.05036 1.29068,-3.01316 2.60273,-7.46906 2.9471,-9.90042 0.35557,-2.51034 -1.56476,0.67353 -4.46677,7.36776 -8.03675,18.5384 -6.81812,26.93326 4.55887,30.99061 8.10983,2.89219 12.64748,2.61833 18.32729,-1.19726 5.39437,-3.62377 6.89901,-7.20929 10.95953,-26.10948 1.30586,-6.07839 4.63829,-16.45331 7.41373,-23.02423 6.72322,-15.91692 6.44648,-27.43388 -0.87485,-35.22707 l -3.08517,-3.26944 3.03905,-0.78282 c 1.66422,-0.43518 2.69262,-0.19936 2.25644,0.50653 -0.43631,0.70589 2.07462,1.22239 5.61792,1.15121 8.36608,-0.16792 12.56511,2.20454 15.24211,8.61107 2.64001,6.3188 1.72332,11.35336 -4.23646,23.20842 -5.66654,11.27161 -8.08154,18.23612 -10.68324,30.71432 -2.53127,12.14014 -7.00835,19.88558 -12.93969,22.37955 -2.51403,1.05705 -3.72337,2.28988 -2.80903,2.855 2.55602,1.57975 11.5824,-2.93339 14.36712,-7.18356 1.40562,-2.14521 4.46618,-10.3386 6.76919,-18.18914 2.30302,-7.85053 7.24825,-20.32878 11.00566,-27.72117 8.20797,-16.14848 9.64557,-25.29389 5.1113,-32.51021 -3.81045,-6.06454 -12.61713,-9.0126 -20.07712,-6.72307 -3.01047,0.92397 -5.45627,1.01336 -5.94033,0.23024 -0.4537,-0.73436 -0.24284,-1.33541 0.46064,-1.33541 0.70317,0 2.57105,-1.03153 4.14421,-2.30242 2.738,-2.21189 2.68171,-2.30177 -1.19711,-1.47355 -2.26942,0.48458 -4.05227,0.21644 -4.05227,-0.59863 0,-0.80046 -0.99464,-1.06513 -2.21032,-0.59863 -1.21583,0.46651 -2.21033,0.19523 -2.21033,-0.64468 0,-1.85585 15.77613,-18.0396 19.89293,-20.39946 3.48053,-1.99515 1.81674,-4.28992 -2.16435,-4.14436 z"
       id="path2996-3-2"
       inkscape:connector-curvature="0" />
    <text
       xml:space="preserve"
       style="font-size:115.19693756px;font-style:italic;font-weight:normal;line-height:125%;letter-spacing:0px;word-spacing:0px;fill:#ffffff;fill-opacity:1;stroke:none;font-family:AkzeleratSuper;-inkscape-font-specification:AkzeleratSuper Italic"
       x="70.469154"
       y="510.47095"
       id="text3879"
       sodipodi:linespacing="125%"><tspan
         sodipodi:role="line"
         id="tspan3881"
         x="70.469154"
         y="510.47095"
         style="font-style:italic;font-variant:normal;font-weight:bold;font-stretch:normal;font-family:ClarenceSmall;-inkscape-font-specification:ClarenceSmall Bold Italic"><tspan
   style="font-style:italic;font-variant:normal;font-weight:normal;font-stretch:normal;letter-spacing:-7.07000017px;font-family:ErichBlack;-inkscape-font-specification:ErichBlack Italic"
   id="tspan3909">ET<tspan
   style="letter-spacing:0px"
   id="tspan4122">Z</tspan></tspan><tspan
   style="letter-spacing:0px"
   id="tspan4124">e</tspan>tera</tspan></text>
    <path
       style="fill:#fffcff;fill-opacity:1"
       d="m 36.047268,931.84442 c -0.109706,-0.0377 -0.418006,0.28298 -1.027783,0.96976 -1.017911,1.14649 -1.82542,1.31842 -4.320885,0.89882 -13.231905,-2.22492 -15.741075,-2.18104 -20.261995,0.4021 -5.7335757,3.27603 -9.2890607,9.75171 -11.03293074,20.12865 -2.19173496,13.04188 -3.69595696,16.0454 -10.02612326,19.89212 -2.260401,1.37363 -2.412151,1.57418 -0.901934,1.32456 1.7220533,-0.28462 1.7523103,-0.22483 0.797055,1.41918 -0.547274,0.94189 -1.471133,1.92316 -2.055566,2.17607 -0.584437,0.2529 -0.914865,0.62405 -0.734127,0.82785 0.180743,0.20382 1.463964,-0.17355 2.852622,-0.82785 3.5944623,-1.69359 3.6385263,-1.56843 1.3633843,5.34557 -0.273974,0.83258 0.502811,0.0662 1.740936,-1.70302 2.580006,-3.68674 3.265159,-4.00558 2.810671,-1.32456 -0.444229,2.6205 0.129575,2.35568 1.78289,-0.80419 0.810228,-1.54856 2.38412896,-3.14866 3.73357596,-3.78448 2.10951504,-0.99394 2.94216004,-0.94266 8.39006204,0.42575 7.1912807,1.80633 15.2558167,1.93995 19.9893187,0.35479 4.29259,-1.4375 8.992657,-6.42048 11.263659,-11.92107 1.876453,-4.54497 2.170386,-10.87298 0.839004,-18.14181 -0.637705,-3.47988 -0.641846,-4.75426 0,-5.91323 0.6754,-1.21956 0.647278,-1.46649 -0.188773,-1.46649 -1.536787,0 -1.2117,-1.37301 0.839006,-3.57158 1.284236,-1.37684 1.468904,-1.8175 0.608278,-1.46649 -0.680332,0.27745 -2.007077,0.70672 -2.936521,0.96976 -1.50867,0.42699 -1.639152,0.29517 -1.216561,-1.20629 0.423725,-1.50547 0.338054,-1.58719 -0.880955,-0.85151 -1.893196,1.14257 -2.042512,1.06236 -1.594111,-0.87516 0.192171,-0.83037 0.277507,-1.23953 0.167803,-1.27725 z m -15.45869,2.95661 c 3.624909,-0.0196 7.558396,0.92157 11.410482,2.81469 0.563831,0.27711 -0.649041,0.72885 -2.747744,1.01708 -6.070565,0.83374 -10.947981,3.83362 -16.318669,10.05251 -2.618726,3.03231 -5.3330367,6.65557 -6.0408447,8.06565 -0.920418,1.83364 0.226503,0.85968 4.0272287,-3.47699 7.179408,-8.19174 13.404434,-11.8318 19.758594,-11.49532 4.258172,0.2255 4.343697,0.27403 4.572586,2.50721 0.745793,7.27644 -4.061296,17.25237 -10.739278,22.28107 -4.36098,3.28392 -4.269776,4.07876 0.188777,1.51378 5.908753,-3.39927 10.286496,-9.5239 12.689967,-17.73969 0.842342,-2.8794 0.926478,-2.93497 1.384358,-1.13536 0.863875,3.39534 0.633302,10.23751 -0.461453,13.86063 -1.272361,4.21091 -5.654284,9.54811 -9.774422,11.92108 -3.457853,1.99156 -13.082405,2.68734 -18.017655,1.30092 l -3.0204237,-0.8515 2.9784747,-0.61499 c 4.68814,-0.97003 4.762585,-1.36681 0.209748,-1.18263 -2.3079367,0.0933 -4.1956997,0.0933 -4.1950277,0 8.79e-4,-0.0933 0.981636,-0.73498 2.181416,-1.41918 3.3486537,-1.90969 8.7427527,-6.76791 10.5085527,-9.46119 1.725445,-2.63173 1.512206,-2.53835 -3.922355,1.75031 -3.256593,2.56994 -10.7043277,5.88959 -13.2143467,5.88959 -1.38925604,0 -1.18937004,-5.72165 0.398525,-11.51898 2.335183,-8.52564 8.7616887,-16.62588 15.7942917,-19.93942 4.042801,-1.90484 2.1335,-2.13927 -2.684819,-0.33115 -3.375141,1.26656 -5.420219,2.68347 -8.5368867,5.93689 -3.648604,3.80871 -3.957305,4.00212 -2.957499,1.82128 1.911229,-4.16892 5.300394,-7.9259 8.8095677,-9.76867 2.273718,-1.194 4.899479,-1.78232 7.718855,-1.79762 z"
       id="path2996-2"
       inkscape:connector-curvature="0" />
    <path
       style="fill:#fffcff;fill-opacity:1"
       d="m 93.811269,934.38259 c -0.41592,-0.0253 -1.61113,0.67229 -3.64091,2.09697 -2.31273,1.62335 -5.57867,5.55723 -5.57867,6.7103 0,0.35868 -0.58842,0.64013 -1.31153,0.64013 -2.32336,0 -5.44949,-2.1492 -6.45948,-4.45882 l -0.978782,-2.25149 0,2.69295 c -0.01486,2.74687 1.321352,6.52269 2.466442,6.95312 0.3517,0.13222 -1.40805,0.24281 -3.914882,0.24281 -6.705723,0 -10.146244,2.12631 -12.664681,7.79189 -2.430043,5.46672 -2.567837,11.54593 -0.371948,17.12894 2.403619,6.11083 8.236108,10.71759 13.604256,10.74973 1.424572,0.008 3.538605,0.46991 4.697865,1.03744 2.63655,1.29082 8.49515,1.3752 10.57017,0.15451 0.86127,-0.50666 3.11625,-0.994 5.01105,-1.08158 6.393521,-0.29559 12.317901,-4.88981 15.776961,-12.25073 1.14321,-2.43285 1.42019,-4.18303 1.42896,-8.80727 0.0104,-5.2745 -0.15264,-6.02786 -1.87915,-8.82935 -1.08651,-1.76295 -3.08028,-3.75745 -4.69784,-4.70163 -2.39912,-1.40026 -3.49052,-1.58547 -7.457885,-1.32439 -3.495456,0.23001 -4.409586,0.10441 -3.719136,-0.48561 1.10556,-0.9448 3.053606,-4.04002 3.053606,-4.85616 0,-0.32181 -0.916076,0.18708 -2.035736,1.14783 -2.80104,2.40354 -5.34986,3.08048 -5.87232,1.54513 -0.49978,-1.4686 0.53542,-4.09156 2.99485,-7.59324 1.04293,-1.48484 1.39464,-2.22614 0.97879,-2.25148 z m -2.0945,13.11157 c 2.7423,0.0697 8.483511,1.56801 10.491881,3.04613 4.75015,3.49605 6.56146,12.59535 3.87573,19.42456 -2.02477,5.14857 -6.765035,9.18252 -10.805071,9.18252 -0.96769,0 -3.02134,0.7956 -4.56087,1.76587 -4.36392,2.75049 -7.76674,2.81446 -16.324982,0.28695 -2.713864,-0.80144 -6.367109,-4.15201 -7.712382,-7.08554 -4.790445,-10.44649 0.665711,-23.92753 9.689363,-23.92753 2.966981,0 3.612211,0.77936 1.996581,2.42806 -0.64899,0.66237 -1.79959,2.85174 -2.564207,4.85614 -1.170326,3.06769 -1.341454,4.49109 -1.057083,8.9618 0.525851,8.26278 1.566141,10.21204 1.507261,2.82539 -0.08025,-10.06273 2.831489,-14.51407 9.474009,-14.43599 8.17427,0.096 11.01879,5.80281 8.57359,17.26138 -0.24604,1.153 -0.044,0.92955 0.60685,-0.6622 1.39406,-3.40991 1.89474,-9.89397 0.99826,-12.95707 -0.40741,-1.39213 -1.85039,-3.66946 -3.21021,-5.05481 -1.66404,-1.69531 -2.12793,-2.51636 -1.42896,-2.51636 0.96456,0 0.96469,-0.0783 0,-1.28025 -0.57012,-0.71045 -1.03741,-1.45947 -1.03741,-1.65549 0,-0.34821 0.57357,-0.48677 1.48765,-0.46356 z m -8.69103,0.64014 c 1.37803,0 3.15,0.3918 3.93442,0.88292 1.33319,0.83461 1.25233,0.89364 -1.13525,0.86087 -1.40497,-0.0193 -3.177,-0.43315 -3.93448,-0.90501 -1.26642,-0.78882 -1.16852,-0.83878 1.13531,-0.83878 z"
       id="path2996-3-3-5"
       inkscape:connector-curvature="0" />
    <path
       style="fill:#fffcff;fill-opacity:1"
       d="m 162.87171,922.42165 c -0.25002,0.01 -0.52132,0.0503 -0.80962,0.11412 -1.68378,0.37276 -6.3809,5.46421 -9.33064,10.11105 l -1.37633,2.16829 -1.45728,-1.46074 -1.47757,-1.46074 0.44529,1.82592 0.44528,1.82593 -1.27509,-1.64333 c -1.70412,-2.20244 -2.05724,-2.07279 -1.39661,0.52495 l 0.56672,2.16829 -1.94304,-1.59768 c -3.76026,-3.13497 -10.57252,-1.49052 -13.76327,3.3323 -1.20657,1.82383 -1.40748,3.45853 -1.80139,14.2422 -0.24471,6.70003 -0.6473,13.26204 -0.89057,14.58456 -0.54322,2.95399 1.04128,8.0116 3.23841,10.3393 l 1.53825,1.64332 -0.93097,-3.08124 c -0.7576,-2.47953 -0.81486,-4.15225 -0.26317,-8.69596 0.37579,-3.095 0.60294,-9.5555 0.50605,-14.37915 -0.16963,-8.43484 -0.099,-8.88368 1.55845,-11.70874 2.14253,-3.65187 5.6693,-5.6895 8.88543,-5.11258 3.52223,0.63185 4.18766,0.82018 5.46476,1.64333 1.01531,0.6544 0.80999,0.88418 -1.43701,1.64334 -3.19528,1.07955 -4.96566,3.51772 -6.29464,8.67314 -1.11765,4.33511 -0.82651,6.19063 0.34405,2.19111 0.84691,-2.89388 3.4905,-5.94411 6.09223,-7.05263 4.0486,-1.72496 7.56987,1.52127 7.56987,6.98415 0,1.94414 -1.00748,6.16922 -2.59074,10.86425 -1.42496,4.22545 -2.61119,8.90515 -2.63127,10.40776 -0.0846,6.32554 -3.05836,10.70039 -7.20547,10.56753 -4.44706,-0.14245 -6.40216,-6.16532 -4.02775,-12.41629 0.5673,-1.49348 1.144,-3.70206 1.29537,-4.90717 0.15628,-1.24425 -0.68779,0.33383 -1.96333,3.65186 -3.53247,9.18861 -2.99682,13.34953 2.00381,15.36058 3.56458,1.43352 5.55905,1.29778 8.05556,-0.59342 2.37102,-1.79613 3.03238,-3.57331 4.81713,-12.94125 0.57397,-3.01277 2.03872,-8.15513 3.25864,-11.41202 2.9551,-7.88926 2.83346,-13.59768 -0.38454,-17.46039 l -1.35605,-1.6205 1.33578,-0.38801 c 0.73149,-0.2157 1.18351,-0.0989 0.9918,0.25106 -0.19179,0.34989 0.91187,0.60589 2.46929,0.5706 3.67721,-0.0833 5.52285,1.09269 6.69949,4.2681 1.1604,3.13193 0.75747,5.62733 -1.86209,11.50331 -2.49066,5.58681 -3.55214,9.03879 -4.6957,15.22364 -1.11259,6.01729 -3.08043,9.85634 -5.68749,11.09248 -1.10502,0.52394 -1.63657,1.13499 -1.23469,1.4151 1.12349,0.783 5.09093,-1.45394 6.31492,-3.56056 0.61783,-1.06328 1.96305,-5.12434 2.97532,-9.01549 1.01227,-3.89113 3.1859,-10.07602 4.83742,-13.74008 3.60772,-8.00403 4.23961,-12.53698 2.24662,-16.11377 -1.67485,-3.0059 -5.54572,-4.46711 -8.82469,-3.3323 -1.32322,0.45797 -2.39824,0.50227 -2.61101,0.11412 -0.1994,-0.36399 -0.1067,-0.66191 0.20247,-0.66191 0.30908,0 1.13009,-0.51127 1.82155,-1.14119 1.20345,-1.09633 1.17872,-1.14089 -0.52618,-0.73037 -0.99749,0.24018 -1.78112,0.10725 -1.78112,-0.29671 0,-0.39676 -0.43719,-0.52795 -0.97153,-0.29671 -0.53439,0.23122 -0.97152,0.0967 -0.97152,-0.31955 0,-0.91985 6.93423,-8.94137 8.74372,-10.11103 1.52982,-0.98891 0.79853,-2.12633 -0.95131,-2.05417 z"
       id="path2996-3-2-1"
       inkscape:connector-curvature="0" />
    <text
       xml:space="preserve"
       style="font-size:115.19693755999999496px;font-style:italic;font-weight:normal;line-height:125%;letter-spacing:0px;word-spacing:0px;fill:#fffcff;fill-opacity:1;stroke:none;font-family:AkzeleratSuper;-inkscape-font-specification:AkzeleratSuper Italic"
       x="175.6371"
       y="982.54407"
       id="text3879-8"
       sodipodi:linespacing="125%"><tspan
         sodipodi:role="line"
         id="tspan3881-6"
         x="175.6371"
         y="982.54407"
         style="font-style:italic;font-variant:normal;font-weight:bold;font-stretch:normal;fill:#fffcff;font-family:ClarenceSmall;-inkscape-font-specification:ClarenceSmall Bold Italic;letter-spacing:0px;fill-opacity:1"><tspan
   style="font-style:italic;font-variant:normal;font-weight:normal;font-stretch:normal;fill:#fffcff;font-family:ErichBlack;-inkscape-font-specification:ErichBlack Italic;letter-spacing:0px;fill-opacity:1"
   id="tspan3909-4"><tspan
   style="letter-spacing:-8px;fill:#fffcff;fill-opacity:1"
   id="tspan3350">ET</tspan>Z</tspan>etera</tspan></text>
  </g>
</svg>
